HIERARCHY
ROOT Hips
{
  OFFSET 0.000000 0.000000 0.000000
  CHANNELS 6 Xposition Yposition Zposition Zrotation Yrotation Xrotation
  JOINT Spine
  {
    OFFSET -0.036024 2.124228 -0.302492
    CHANNELS 3 Zrotation Yrotation Xrotation
    JOINT Spine1
    {
      OFFSET 0.027172 2.100430 0.129121
      CHANNELS 3 Zrotation Yrotation Xrotation
      JOINT Spine2
      {
        OFFSET 0.038535 2.157190 0.286859
        CHANNELS 3 Zrotation Yrotation Xrotation
        JOINT Neck
        {
          OFFSET -0.063713 1.886563 0.116018
          CHANNELS 3 Zrotation Yrotation Xrotation
          JOINT Head
          {
            OFFSET 0.033824 1.930896 -0.054826
            CHANNELS 3 Zrotation Yrotation Xrotation
            End Site
            {
              OFFSET 0 0 0
            }
          }
        }
        JOINT LeftShoulder
        {
          OFFSET 3.309027 1.403566 0.201558
          CHANNELS 3 Zrotation Yrotation Xrotation
          JOINT LeftArm
          {
            OFFSET 5.433010 -0.000000 0.000000
            CHANNELS 3 Zrotation Yrotation Xrotation
            JOINT LeftForeArm
            {
              OFFSET 3.159360 -0.000000 0.000000
              CHANNELS 3 Zrotation Yrotation Xrotation
              JOINT LeftHand
              {
                OFFSET 0.712827 -0.000000 0.000000
                CHANNELS 3 Zrotation Yrotation Xrotation
                JOINT LeftHandIndex1
                {
                  OFFSET 0.574699 -0.000000 0.000000
                  CHANNELS 3 Zrotation Yrotation Xrotation
                  End Site
                  {
                    OFFSET 0 0 0
                  }
                }
              }
            }
          }
        }
        JOINT RightShoulder
        {
          OFFSET -3.129471 1.600370 -0.004644
          CHANNELS 3 Zrotation Yrotation Xrotation
          JOINT RightArm
          {
            OFFSET -5.341940 -0.000000 0.000000
            CHANNELS 3 Zrotation Yrotation Xrotation
            JOINT RightForeArm
            {
              OFFSET -3.193510 -0.000000 0.000000
              CHANNELS 3 Zrotation Yrotation Xrotation
              JOINT RightHand
              {
                OFFSET -0.743862 -0.000000 0.000000
                CHANNELS 3 Zrotation Yrotation Xrotation
                JOINT RightHandIndex1
                {
                  OFFSET -0.599721 -0.000000 0.000000
                  CHANNELS 3 Zrotation Yrotation Xrotation
                  End Site
                  {
                    OFFSET 0 0 0
                  }
                }
              }
            }
          }
        }
      }
    }
  }
  JOINT LeftUpLeg
  {
    OFFSET 2.437905 -6.698094 0.000000
    CHANNELS 3 Zrotation Yrotation Xrotation
    JOINT LeftLeg
    {
      OFFSET 2.592881 -7.123888 0.000000
      CHANNELS 3 Zrotation Yrotation Xrotation
      JOINT LeftFoot
      {
        OFFSET 0.145520 -0.399812 2.131603
        CHANNELS 3 Zrotation Yrotation Xrotation
        JOINT LeftToeBase
        {
          OFFSET 0.000000 -0.000000 1.094270
          CHANNELS 3 Zrotation Yrotation Xrotation
          End Site
          {
            OFFSET 0 0 0
          }
        }
      }
    }
  }
  JOINT RightUpLeg
  {
    OFFSET -2.507027 -6.888006 0.000000
    CHANNELS 3 Zrotation Yrotation Xrotation
    JOINT RightLeg
    {
      OFFSET -2.616200 -7.187956 0.000000
      CHANNELS 3 Zrotation Yrotation Xrotation
      JOINT RightFoot
      {
        OFFSET -0.151904 -0.417351 2.159736
        CHANNELS 3 Zrotation Yrotation Xrotation
        JOINT RightToeBase
        {
          OFFSET -0.000000 -0.000000 1.109190
          CHANNELS 3 Zrotation Yrotation Xrotation
          End Site
          {
            OFFSET 0 0 0
          }
        }
      }
    }
  }
}
MOTION
Frames: 9
Frame Time: 0.00833333
-1.016430 14.336800 3.338090 -12.104800 -27.003000 8.170620 -1.449390 18.445100 -57.325600 0.000000 0.000000 65.468200 -1.510640 0.000000 -6.459770 0.000000 0.000000 -9.983110 14.101900 -10.915400 -4.628710 0.000000 0.000000 58.349600 -22.554200 0.000000 -29.852300 0.000000 0.000000 -21.543100 4.902000 4.333530 13.474300 2.140820 6.737820 -1.007830 -1.815690 3.084060 -8.331200 -2.426530 1.314120 -1.751560 1.707350 0.874016 1.399990 -0.000000 0.000000 0.000000 81.823200 -18.577200 -22.242100 0.000000 0.000000 85.094600 18.412400 0.000000 -32.531700 0.000000 0.000000 7.125020 -0.000000 0.000000 0.000000 -87.644800 19.733500 -52.109100 0.000000 0.000000 96.776300 -33.635100 0.000000 -13.533700 0.000000 0.000000 7.125020
-1.013200 14.362700 3.394200 -12.402700 -26.709000 8.376490 -1.550750 18.801400 -57.513100 0.000000 0.000000 65.584700 -1.535400 0.000000 -6.504790 0.000000 0.000000 -9.655730 14.537300 -10.695600 -4.131320 0.000000 0.000000 57.289400 -22.275900 0.000000 -30.341900 0.000000 0.000000 -20.335900 5.175100 4.268730 13.298100 2.234310 6.696010 -1.084140 -1.846410 3.054630 -8.297810 -2.379370 1.334700 -1.646090 1.724150 0.885980 1.367330 -0.000000 0.000000 0.000000 81.586600 -18.636400 -21.333100 0.000000 0.000000 85.946400 18.793100 0.000000 -33.024000 0.000000 0.000000 7.125020 -0.000000 0.000000 0.000000 -87.733400 20.053800 -52.347300 0.000000 0.000000 97.037700 -33.579700 0.000000 -13.636100 0.000000 0.000000 7.125020
-1.013880 14.385200 3.444070 -12.630900 -26.498600 8.589210 -1.838500 19.329400 -57.782600 0.000000 0.000000 65.725500 -1.408950 0.000000 -6.529740 0.000000 0.000000 -8.639920 14.923100 -10.397000 -3.663820 0.000000 0.000000 56.172300 -22.676200 0.000000 -30.214900 0.000000 0.000000 -20.251200 5.329290 4.256250 13.134300 2.327370 6.706850 -1.184850 -1.824770 3.054120 -8.308210 -2.423740 1.335730 -1.535510 1.765660 0.885086 1.329500 0.000000 0.000000 0.000000 81.415000 -18.496300 -20.500800 0.000000 0.000000 86.843800 20.059900 0.000000 -32.901000 0.000000 0.000000 7.125020 0.000000 0.000000 0.000000 -87.744500 20.340400 -52.610700 0.000000 0.000000 97.333600 -33.657200 0.000000 -13.823300 0.000000 0.000000 7.125020
-1.015570 14.414200 3.519010 -12.719500 -26.736100 8.716420 -2.404780 20.275700 -57.821300 0.000000 0.000000 65.899500 -1.060430 0.000000 -6.444400 0.000000 0.000000 -7.433050 14.970700 -9.779680 -3.039390 0.000000 0.000000 54.991700 -23.144800 0.000000 -29.877700 0.000000 0.000000 -20.797600 5.457350 4.394530 12.662700 2.317050 6.874360 -1.180970 -1.892910 3.142680 -8.008940 -2.462790 1.315200 -1.449260 1.812740 0.870150 1.297510 0.000000 -0.000000 0.000000 81.147200 -18.573300 -19.503600 0.000000 0.000000 87.534800 20.424200 0.000000 -33.140200 0.000000 0.000000 7.125020 0.000000 -0.000000 0.000000 -87.756700 20.530300 -52.795700 0.000000 0.000000 97.544100 -33.830200 0.000000 -14.138400 0.000000 0.000000 7.125020
-1.019730 14.434700 3.571370 -12.747400 -26.678300 8.871960 -3.190720 21.084700 -58.224200 0.000000 0.000000 66.078800 -0.426237 0.000000 -6.179810 0.000000 0.000000 -5.583830 15.091900 -9.268810 -2.394890 0.000000 0.000000 53.821700 -23.367600 0.000000 -29.754900 0.000000 0.000000 -21.459000 5.473710 4.418610 12.367600 2.326630 6.895370 -1.288860 -1.873750 3.154500 -7.955800 -2.489380 1.303320 -1.259110 1.840950 0.859302 1.238210 0.000000 -0.000000 0.000000 80.912100 -18.502000 -18.756500 0.000000 0.000000 88.316000 20.883800 0.000000 -33.191400 0.000000 0.000000 7.125020 0.000000 -0.000000 0.000000 -87.812600 20.747700 -52.992100 0.000000 0.000000 97.679900 -33.746300 0.000000 -14.324200 0.000000 0.000000 7.125020
-1.024600 14.455500 3.611850 -12.724700 -26.631000 9.075890 -4.142590 21.968800 -58.772600 0.000000 0.000000 66.233100 0.268834 0.000000 -5.796070 0.000000 0.000000 -3.824380 15.203900 -8.708920 -1.827760 0.000000 0.000000 52.634800 -23.463100 0.000000 -29.576300 0.000000 0.000000 -22.471400 5.417300 4.446720 12.052400 2.307690 6.904130 -1.353640 -1.838660 3.165620 -7.849460 -2.492830 1.291900 -1.274180 1.862360 0.852918 1.208840 0.000000 0.000000 0.000000 80.563300 -18.362600 -17.815100 0.000000 0.000000 88.999700 20.956500 0.000000 -33.312500 0.000000 0.000000 7.125020 0.000000 0.000000 0.000000 -87.834100 20.982600 -53.108300 0.000000 0.000000 97.920100 -32.498800 0.000000 -15.805000 0.000000 0.000000 7.125020
-1.035580 14.468500 3.662340 -12.612900 -26.538000 9.199450 -5.149150 22.762200 -59.285400 0.000000 0.000000 66.416800 1.096180 0.000000 -5.541060 0.000000 0.000000 -2.096370 15.215200 -8.104360 -1.062360 0.000000 0.000000 51.419000 -23.587900 0.000000 -29.569500 0.000000 0.000000 -23.963300 5.326200 4.468330 11.713500 2.266050 6.899010 -1.458060 -1.805910 3.169520 -7.774220 -2.391880 1.195740 -1.166420 1.808270 0.787890 1.164720 -0.000000 -0.000000 0.000000 80.305700 -18.276600 -17.108900 0.000000 0.000000 89.727500 21.144800 0.000000 -33.430600 0.000000 0.000000 7.125020 -0.000000 -0.000000 0.000000 -87.826000 21.158100 -53.082400 0.000000 0.000000 97.901200 -33.897100 0.000000 -15.101200 0.000000 0.000000 7.125020
-1.045210 14.478900 3.705490 -12.589900 -26.456300 9.391530 -6.035330 23.506700 -59.819600 0.000000 0.000000 66.571500 2.013960 0.000000 -5.254050 0.000000 0.000000 -1.699020 15.324100 -7.447480 -0.347835 0.000000 0.000000 50.186900 -23.711000 0.000000 -29.528800 0.000000 0.000000 -25.315600 5.312260 4.482720 11.366400 2.228100 6.896100 -1.576410 -1.811440 3.170820 -7.700650 -2.415070 1.196550 -1.156500 1.847960 0.787767 1.171580 0.000000 0.000000 0.000000 79.988000 -18.220100 -16.391400 0.000000 0.000000 90.399700 21.184100 0.000000 -33.565600 0.000000 0.000000 7.125020 0.000000 0.000000 0.000000 -87.849800 21.309400 -53.164500 0.000000 0.000000 97.993600 -34.331100 0.000000 -15.114100 0.000000 0.000000 7.125020
-1.054070 14.479600 3.744270 -12.694100 -26.334100 9.622910 -6.725590 24.196200 -60.354700 0.000000 0.000000 66.772000 2.798930 0.000000 -5.272130 0.000000 0.000000 -0.066455 15.575200 -6.763840 0.393279 0.000000 0.000000 48.920800 -24.320200 0.000000 -29.140700 0.000000 0.000000 -27.519500 5.437180 4.481990 11.044000 2.232740 6.896230 -1.687460 -1.850180 3.168280 -7.622690 -2.503040 1.191160 -1.227220 1.901520 0.784006 1.224940 0.000000 -0.000000 0.000000 79.696500 -18.111600 -15.731400 0.000000 0.000000 91.078500 21.350500 0.000000 -33.646200 0.000000 0.000000 7.125020 0.000000 -0.000000 0.000000 -87.836000 21.452700 -53.203800 0.000000 0.000000 98.046700 -34.361800 0.000000 -15.361800 0.000000 0.000000 7.125020
